<?xml version="1.0" encoding="utf-8"?>
<!-- Generator: Adobe Illustrator 26.3.1, SVG Export Plug-In . SVG Version: 6.00 Build 0)  -->
<svg version="1.1" id="Layer_1" xmlns="http://www.w3.org/2000/svg" xmlns:xlink="http://www.w3.org/1999/xlink" x="0px" y="0px"
	 viewBox="0 0 500 75.9" enable-background="new 0 0 500 75.9" xml:space="preserve">
<g>
	<g>
		<path fill="#134278" d="M350.8,26.7c8.1,0,14.2,5.5,14.2,14.6c0,7.9-5.2,14.2-14.2,14.2s-14.2-6.3-14.2-14.2
			C336.7,32.2,342.8,26.7,350.8,26.7 M350.8,49.9c5.4,0,6.8-4.9,6.8-9.5c0-4.2-2.2-8.2-6.8-8.2c-4.6,0-6.7,4-6.7,8.2
			C344,45,345.4,49.9,350.8,49.9"/>
		<path fill="#134278" d="M369,27.9h6.5v3.8h0.1c2.2-3.3,5.4-4.5,8.1-4.5c3.8,0,6.4,1.4,8.1,4.8c1.6-3.3,5.1-4.8,8.5-4.8
			c6.6,0,8.6,4.6,8.6,10.8v17.3h-7V39.1c0-2.5,0-6.2-4-6.2c-4.7,0-5.2,5.6-5.2,9.3v13.4h-7V39.1c0-2.5,0-6.2-4-6.2
			c-4.7,0-5.2,5.6-5.2,9.3v13.4h-7V27.9"/>
		<path fill="#134278" d="M430.8,33.1c-2.1-0.7-3.7-1.2-6.3-1.2c-1.9,0-4.1,0.7-4.1,3c0,4.3,12.3,1.6,12.3,11.6c0,6.4-5.6,9-11.4,9
			c-2.7,0-5.4-0.5-8.1-1.2l0.4-5.8c2.2,1.1,4.5,1.8,6.9,1.8c1.8,0,4.6-0.7,4.6-3.3c0-5.4-12.3-1.7-12.3-11.7c0-5.9,5.1-8.6,10.7-8.6
			c3.3,0,5.4,0.5,7.7,1L430.8,33.1"/>
		<path fill="#134278" d="M436.3,32.4V19.7l7-2.3v9.8h6.2v5.2h-6.2v12.8c0,2.3,0.6,4.5,3.3,4.5c1.3,0,2.5-0.3,3.2-0.7l0.2,5.6
			c-1.5,0.4-3.1,0.6-5.2,0.6c-5.5,0-8.6-3.4-8.6-9V32.4"/>
		<path fill="#134278" d="M466.4,26.7c8.1,0,14.2,5.5,14.2,14.6c0,7.9-5.2,14.2-14.2,14.2s-14.2-6.3-14.2-14.2
			C452.2,32.2,458.4,26.7,466.4,26.7 M466.4,49.9c5.4,0,6.8-4.9,6.8-9.5c0-4.2-2.2-8.2-6.8-8.2c-4.6,0-6.8,4-6.8,8.2
			C459.6,45,461,49.9,466.4,49.9"/>
		<path fill="#134278" d="M484.1,27.9h6.2v6.2h0.1c0.3-2.5,3.2-6.8,7.5-6.8c0.7,0,1.4,0,2.1,0.2v7.2c-0.6-0.4-1.9-0.6-3.1-0.6
			c-5.7,0-5.7,7.2-5.7,11.2v10.1h-7V27.9"/>
		<path fill="#134278" d="M334.3,54.4c-2.7,0.6-5.6,1.2-8.6,1.2c-12.1,0-20.5-6-20.5-18.7c0-12.8,7.9-20,20.5-20
			c2.5,0,5.7,0.5,8.5,1.5l-0.5,6.3c-2.8-1.6-5.4-2-8.1-2c-7.8,0-12.6,5.9-12.6,13.6s4.7,13.4,12.7,13.4c2.9,0,6.4-0.6,8.2-1.5
			L334.3,54.4"/>
		<path fill="#134278" d="M99.7,32.9c-2.2-0.7-3.7-1.2-6.3-1.2c-1.9,0-4.2,0.7-4.2,3c0,4.3,12.4,1.6,12.4,11.5c0,6.3-5.6,9-11.5,9
			c-2.7,0-5.4-0.5-8.1-1.2l0.4-5.8c2.2,1.1,4.5,1.8,7,1.8c1.8,0,4.6-0.7,4.6-3.3c0-5.3-12.4-1.7-12.4-11.6c0-5.8,5.1-8.5,10.8-8.5
			c3.3,0,5.5,0.5,7.8,1L99.7,32.9"/>
		<path fill="#134278" d="M106.2,32.4V19.6l7.1-2.3v9.8h6.3v5.2h-6.3v12.8c0,2.3,0.6,4.5,3.3,4.5c1.3,0,2.5-0.3,3.2-0.7l0.2,5.6
			c-1.5,0.4-3.1,0.6-5.2,0.6c-5.5,0-8.7-3.4-8.7-8.9V32.4"/>
		<path fill="#134278" d="M142,33.1c-1.3-0.6-2.6-1-4.8-1c-4.4,0-7.2,3.5-7.2,8.7c0,5,2.4,9,7.3,9c2,0,4.2-0.7,5.4-1.3l0.3,5.8
			c-2.1,0.6-4.2,0.9-7.1,0.9c-9,0-13.5-6.1-13.5-14.5c0-8,4.6-14.2,13.2-14.2c2.8,0,4.9,0.3,6.9,0.9L142,33.1"/>
		<path fill="#134278" d="M159.3,26.6c8.2,0,14.3,5.4,14.3,14.5c0,7.9-5.2,14.1-14.3,14.1c-9.1,0-14.3-6.2-14.3-14.1
			C145,32,151.2,26.6,159.3,26.6 M159.3,49.6c5.4,0,6.9-4.9,6.9-9.5c0-4.2-2.2-8.2-6.9-8.2c-4.6,0-6.8,4-6.8,8.2
			C152.4,44.7,153.8,49.6,159.3,49.6"/>
		<path fill="#134278" d="M177.6,27.8h6.7v3.7h0.1c2.2-3.1,5.2-4.3,9-4.3c6.4,0,9.3,4.5,9.3,10.8v17.2h-7.1V40.5
			c0-3.3,0-7.9-4.6-7.9c-5.1,0-6.2,5.5-6.2,9.1v13.4h-7.1V27.8"/>
		<path fill="#134278" d="M76.1,53.1c-2.6,1.4-5.6,2.2-9.5,2.2c-9.1,0-14.3-5.2-14.3-14.2c0-8,4.2-14.5,12.7-14.5
			c10.2,0,13,6.9,13,16.5H59.1c0.3,4.4,3.4,6.9,7.9,6.9c3.4,0,6.7-1.3,9.4-2.7L76.1,53.1 M71.3,38.3c-0.2-3.4-1.8-6.4-5.8-6.4
			c-4,0-6,2.7-6.3,6.4H71.3z"/>
		<polygon fill="#134278" points="0,17.9 8,17.9 14.9,47.9 15,47.9 21.4,17.9 31.6,17.9 38.3,47.9 38.4,47.9 45.4,17.9 52.8,17.9 
			42.9,55.5 33.2,55.5 26.5,25.5 26.4,25.5 19.7,55.5 10,55.5 		"/>
	</g>
	<g>
		<polygon fill="#25517B" points="258.6,27.8 266.1,29.7 267.6,5.9 256.1,0 255.7,5.9 264.1,26.7 		"/>
		<polygon fill="#172B49" points="258.2,23.4 253.7,26.7 261.3,25.2 252.3,3 239.4,2.7 241.6,8.3 		"/>
		<polygon fill="#172B49" points="251.4,22.9 248.8,27.9 255,23.2 237.3,7.1 225.5,12.5 230,16.5 		"/>
		<polygon fill="#6D5BA3" points="245.1,25.4 245,31 248.5,24.1 225.6,17.3 217.3,27.3 223,28.9 		"/>
		<polygon fill="#6D5BA3" points="242.8,35.5 243,27.8 219.4,31.6 216.3,44.1 222.1,43.2 240.4,30.4 		"/>
		<polygon fill="#9E2B7C" points="239.6,33.5 220,47.1 222.6,59.8 227.5,56.4 238.5,37 242.9,40.6 		"/>
		<polygon fill="#9E2B7C" points="239,40.1 227.3,60.8 235.2,71.2 238.1,65.9 239.5,43.7 245,45 		"/>
		<polygon fill="#EF9D0A" points="249,48.1 241.4,46.2 239.9,70.1 251.4,75.9 251.8,70 243.5,49.2 		"/>
		<polygon fill="#EF9D0A" points="249.3,52.7 253.8,49.2 246.3,50.7 255.2,72.9 268.1,73.2 265.9,67.7 		"/>
		<polygon fill="#00A082" points="256.1,53.1 258.7,48.1 252.5,52.8 270.2,68.9 282,63.5 277.6,59.5 		"/>
		<polygon fill="#00A082" points="262.5,50.5 262.6,44.9 259.1,51.9 281.9,58.6 290.3,48.7 284.5,47 		"/>
		<polygon fill="#3396BC" points="264.7,40.4 264.6,48.1 288.2,44.4 291.3,31.8 285.4,32.7 267.1,45.5 		"/>
		<polygon fill="#3396BC" points="267.9,42.5 287.5,28.8 284.9,16.1 280,19.5 269,39.1 264.7,35.4 		"/>
		<polygon fill="#25517B" points="268.4,35.8 280.2,15.1 272.4,4.8 269.4,10 268,32.3 262.5,30.9 		"/>
	</g>
</g>
</svg>
